<?xml version="1.0" encoding="UTF-8" standalone="no"?>
<!DOCTYPE svg PUBLIC "-//W3C//DTD SVG 1.1//EN"
 "http://www.w3.org/Graphics/SVG/1.1/DTD/svg11.dtd">
<!-- Generated by graphviz version 2.38.0 (20140413.2041)
 -->
<!-- Title: %3 Pages: 1 -->
<svg width="947pt" height="852pt"
 viewBox="0.00 0.00 946.59 852.49" xmlns="http://www.w3.org/2000/svg" xmlns:xlink="http://www.w3.org/1999/xlink">
<g id="graph0" class="graph" transform="scale(1 1) rotate(0) translate(4 848.491)">
<title>%3</title>
<polygon fill="white" stroke="none" points="-4,4 -4,-848.491 942.591,-848.491 942.591,4 -4,4"/>
<!-- 192.168.107.0 -->
<g id="node1" class="node"><title>192.168.107.0</title>
<ellipse fill="cyan" stroke="black" cx="603.649" cy="-18" rx="61.99" ry="18"/>
<text text-anchor="middle" x="603.649" y="-14.3" font-family="Times,serif" font-size="14.00">192.168.107.0</text>
</g>
<!-- 192.168.109.0 -->
<g id="node2" class="node"><title>192.168.109.0</title>
<ellipse fill="cyan" stroke="black" cx="310.649" cy="-361" rx="61.99" ry="18"/>
<text text-anchor="middle" x="310.649" y="-357.3" font-family="Times,serif" font-size="14.00">192.168.109.0</text>
</g>
<!-- 10.226.0.0 -->
<g id="node3" class="node"><title>10.226.0.0</title>
<ellipse fill="cyan" stroke="black" cx="687.649" cy="-657" rx="48.9926" ry="18"/>
<text text-anchor="middle" x="687.649" y="-653.3" font-family="Times,serif" font-size="14.00">10.226.0.0</text>
</g>
<!-- 10.226.1.3 -->
<g id="node4" class="node"><title>10.226.1.3</title>
<ellipse fill="white" stroke="black" cx="857.14" cy="-657" rx="48.9926" ry="18"/>
<text text-anchor="middle" x="857.14" y="-653.3" font-family="Times,serif" font-size="14.00">10.226.1.3</text>
</g>
<!-- 10.226.1.3&#45;&#45;10.226.0.0 -->
<g id="edge1" class="edge"><title>10.226.1.3&#45;&#45;10.226.0.0</title>
<path fill="none" stroke="black" d="M808.116,-657C785.63,-657 759.036,-657 736.563,-657"/>
</g>
<!-- 10.22.0.5 -->
<g id="node5" class="node"><title>10.22.0.5</title>
<ellipse fill="white" stroke="black" cx="560.611" cy="-276" rx="44.393" ry="18"/>
<text text-anchor="middle" x="560.611" y="-272.3" font-family="Times,serif" font-size="14.00">10.22.0.5</text>
</g>
<!-- unknown -->
<g id="node21" class="node"><title>unknown</title>
<ellipse fill="red" stroke="black" cx="889.845" cy="-276" rx="43.5923" ry="18"/>
<text text-anchor="middle" x="889.845" y="-272.3" font-family="Times,serif" font-size="14.00">unknown</text>
</g>
<!-- 10.22.0.5&#45;&#45;unknown -->
<g id="edge2" class="edge"><title>10.22.0.5&#45;&#45;unknown</title>
<path fill="none" stroke="black" d="M605.013,-276C668.201,-276 783.347,-276 846.147,-276"/>
</g>
<!-- 10.22.0.4 -->
<g id="node6" class="node"><title>10.22.0.4</title>
<ellipse fill="white" stroke="black" cx="889.845" cy="-111.708" rx="44.393" ry="18"/>
<text text-anchor="middle" x="889.845" y="-108.008" font-family="Times,serif" font-size="14.00">10.22.0.4</text>
</g>
<!-- 10.22.0.4&#45;&#45;unknown -->
<g id="edge3" class="edge"><title>10.22.0.4&#45;&#45;unknown</title>
<path fill="none" stroke="black" d="M889.845,-129.918C889.845,-161.498 889.845,-226.072 889.845,-257.709"/>
</g>
<!-- 10.227.1.3 -->
<g id="node7" class="node"><title>10.227.1.3</title>
<ellipse fill="white" stroke="black" cx="889.845" cy="-440.292" rx="48.9926" ry="18"/>
<text text-anchor="middle" x="889.845" y="-436.592" font-family="Times,serif" font-size="14.00">10.227.1.3</text>
</g>
<!-- 10.227.1.3&#45;&#45;unknown -->
<g id="edge4" class="edge"><title>10.227.1.3&#45;&#45;unknown</title>
<path fill="none" stroke="black" d="M889.845,-422.082C889.845,-390.502 889.845,-325.928 889.845,-294.291"/>
</g>
<!-- 192.168.109.1 -->
<g id="node8" class="node"><title>192.168.109.1</title>
<ellipse fill="white" stroke="black" cx="559.553" cy="-361" rx="61.99" ry="18"/>
<text text-anchor="middle" x="559.553" y="-357.3" font-family="Times,serif" font-size="14.00">192.168.109.1</text>
</g>
<!-- 192.168.109.1&#45;&#45;192.168.109.0 -->
<g id="edge5" class="edge"><title>192.168.109.1&#45;&#45;192.168.109.0</title>
<path fill="none" stroke="black" d="M497.707,-361C459.553,-361 410.784,-361 372.609,-361"/>
</g>
<!-- 10.226.0.2 -->
<g id="node9" class="node"><title>10.226.0.2</title>
<ellipse fill="white" stroke="black" cx="687.649" cy="-826.491" rx="48.9926" ry="18"/>
<text text-anchor="middle" x="687.649" y="-822.791" font-family="Times,serif" font-size="14.00">10.226.0.2</text>
</g>
<!-- 10.226.0.2&#45;&#45;10.226.0.0 -->
<g id="edge6" class="edge"><title>10.226.0.2&#45;&#45;10.226.0.0</title>
<path fill="none" stroke="black" d="M687.649,-808.353C687.649,-775.73 687.649,-707.535 687.649,-675.008"/>
</g>
<!-- 10.226.0.1 -->
<g id="node10" class="node"><title>10.226.0.1</title>
<ellipse fill="white" stroke="black" cx="518.158" cy="-657" rx="48.9926" ry="18"/>
<text text-anchor="middle" x="518.158" y="-653.3" font-family="Times,serif" font-size="14.00">10.226.0.1</text>
</g>
<!-- 10.226.0.1&#45;&#45;10.226.0.0 -->
<g id="edge7" class="edge"><title>10.226.0.1&#45;&#45;10.226.0.0</title>
<path fill="none" stroke="black" d="M567.181,-657C589.668,-657 616.262,-657 638.735,-657"/>
</g>
<!-- 192.168.109.3 -->
<g id="node11" class="node"><title>192.168.109.3</title>
<ellipse fill="white" stroke="black" cx="486.651" cy="-537.002" rx="61.99" ry="18"/>
<text text-anchor="middle" x="486.651" y="-533.302" font-family="Times,serif" font-size="14.00">192.168.109.3</text>
</g>
<!-- 192.168.109.3&#45;&#45;192.168.109.0 -->
<g id="edge8" class="edge"><title>192.168.109.3&#45;&#45;192.168.109.0</title>
<path fill="none" stroke="black" d="M469.132,-519.483C435.396,-485.747 361.777,-412.128 328.097,-378.448"/>
</g>
<!-- 192.168.109.2 -->
<g id="node12" class="node"><title>192.168.109.2</title>
<ellipse fill="white" stroke="black" cx="310.649" cy="-609.904" rx="61.99" ry="18"/>
<text text-anchor="middle" x="310.649" y="-606.204" font-family="Times,serif" font-size="14.00">192.168.109.2</text>
</g>
<!-- 192.168.109.2&#45;&#45;192.168.109.0 -->
<g id="edge9" class="edge"><title>192.168.109.2&#45;&#45;192.168.109.0</title>
<path fill="none" stroke="black" d="M310.649,-591.602C310.649,-545.572 310.649,-425.388 310.649,-379.329"/>
</g>
<!-- 192.168.109.5 -->
<g id="node13" class="node"><title>192.168.109.5</title>
<ellipse fill="white" stroke="black" cx="134.647" cy="-537.002" rx="61.99" ry="18"/>
<text text-anchor="middle" x="134.647" y="-533.302" font-family="Times,serif" font-size="14.00">192.168.109.5</text>
</g>
<!-- 192.168.109.5&#45;&#45;192.168.109.0 -->
<g id="edge10" class="edge"><title>192.168.109.5&#45;&#45;192.168.109.0</title>
<path fill="none" stroke="black" d="M152.166,-519.483C185.902,-485.747 259.52,-412.128 293.201,-378.448"/>
</g>
<!-- 192.168.109.4 -->
<g id="node14" class="node"><title>192.168.109.4</title>
<ellipse fill="white" stroke="black" cx="61.7445" cy="-361" rx="61.99" ry="18"/>
<text text-anchor="middle" x="61.7445" y="-357.3" font-family="Times,serif" font-size="14.00">192.168.109.4</text>
</g>
<!-- 192.168.109.4&#45;&#45;192.168.109.0 -->
<g id="edge11" class="edge"><title>192.168.109.4&#45;&#45;192.168.109.0</title>
<path fill="none" stroke="black" d="M123.591,-361C161.745,-361 210.514,-361 248.689,-361"/>
</g>
<!-- 192.168.109.7 -->
<g id="node15" class="node"><title>192.168.109.7</title>
<ellipse fill="white" stroke="black" cx="134.647" cy="-184.998" rx="61.99" ry="18"/>
<text text-anchor="middle" x="134.647" y="-181.298" font-family="Times,serif" font-size="14.00">192.168.109.7</text>
</g>
<!-- 192.168.109.7&#45;&#45;192.168.109.0 -->
<g id="edge12" class="edge"><title>192.168.109.7&#45;&#45;192.168.109.0</title>
<path fill="none" stroke="black" d="M152.166,-202.517C185.902,-236.253 259.52,-309.872 293.201,-343.552"/>
</g>
<!-- 10.226.0.4 -->
<g id="node16" class="node"><title>10.226.0.4</title>
<ellipse fill="white" stroke="black" cx="687.649" cy="-487.509" rx="48.9926" ry="18"/>
<text text-anchor="middle" x="687.649" y="-483.809" font-family="Times,serif" font-size="14.00">10.226.0.4</text>
</g>
<!-- 10.226.0.4&#45;&#45;10.226.0.0 -->
<g id="edge13" class="edge"><title>10.226.0.4&#45;&#45;10.226.0.0</title>
<path fill="none" stroke="black" d="M687.649,-505.647C687.649,-538.27 687.649,-606.465 687.649,-638.992"/>
</g>
<!-- 192.168.109.6 -->
<g id="node17" class="node"><title>192.168.109.6</title>
<ellipse fill="white" stroke="black" cx="310.649" cy="-112.096" rx="61.99" ry="18"/>
<text text-anchor="middle" x="310.649" y="-108.396" font-family="Times,serif" font-size="14.00">192.168.109.6</text>
</g>
<!-- 192.168.109.6&#45;&#45;192.168.109.0 -->
<g id="edge14" class="edge"><title>192.168.109.6&#45;&#45;192.168.109.0</title>
<path fill="none" stroke="black" d="M310.649,-130.398C310.649,-176.428 310.649,-296.612 310.649,-342.671"/>
</g>
<!-- 192.168.109.8 -->
<g id="node18" class="node"><title>192.168.109.8</title>
<ellipse fill="white" stroke="black" cx="486.651" cy="-184.998" rx="61.99" ry="18"/>
<text text-anchor="middle" x="486.651" y="-181.298" font-family="Times,serif" font-size="14.00">192.168.109.8</text>
</g>
<!-- 192.168.109.8&#45;&#45;192.168.109.0 -->
<g id="edge15" class="edge"><title>192.168.109.8&#45;&#45;192.168.109.0</title>
<path fill="none" stroke="black" d="M469.132,-202.517C435.396,-236.253 361.777,-309.872 328.097,-343.552"/>
</g>
<!-- 192.168.107.230 -->
<g id="node19" class="node"><title>192.168.107.230</title>
<ellipse fill="white" stroke="black" cx="808.237" cy="-18" rx="70.6878" ry="18"/>
<text text-anchor="middle" x="808.237" y="-14.3" font-family="Times,serif" font-size="14.00">192.168.107.230</text>
</g>
<!-- 192.168.107.230&#45;&#45;192.168.107.0 -->
<g id="edge16" class="edge"><title>192.168.107.230&#45;&#45;192.168.107.0</title>
<path fill="none" stroke="black" d="M737.256,-18C713.943,-18 688.229,-18 665.637,-18"/>
</g>
<!-- 192.168.107.231 -->
<g id="node20" class="node"><title>192.168.107.231</title>
<ellipse fill="white" stroke="black" cx="399.061" cy="-18" rx="70.6878" ry="18"/>
<text text-anchor="middle" x="399.061" y="-14.3" font-family="Times,serif" font-size="14.00">192.168.107.231</text>
</g>
<!-- 192.168.107.231&#45;&#45;192.168.107.0 -->
<g id="edge17" class="edge"><title>192.168.107.231&#45;&#45;192.168.107.0</title>
<path fill="none" stroke="black" d="M470.042,-18C493.354,-18 519.069,-18 541.661,-18"/>
</g>
</g>
</svg>
