<?xml version="1.0" encoding="UTF-8" standalone="no"?>
<!DOCTYPE svg PUBLIC "-//W3C//DTD SVG 1.1//EN"
 "http://www.w3.org/Graphics/SVG/1.1/DTD/svg11.dtd">
<!-- Generated by graphviz version 2.38.0 (20140413.2041)
 -->
<!-- Title: %3 Pages: 1 -->
<svg width="6118pt" height="2682pt"
 viewBox="0.00 0.00 6117.91 2681.80" xmlns="http://www.w3.org/2000/svg" xmlns:xlink="http://www.w3.org/1999/xlink">
<g id="graph0" class="graph" transform="scale(1 1) rotate(0) translate(4 2677.8)">
<title>%3</title>
<polygon fill="white" stroke="none" points="-4,4 -4,-2677.8 6113.91,-2677.8 6113.91,4 -4,4"/>
<!-- 10.247.84.18 -->
<g id="node1" class="node"><title>10.247.84.18</title>
<ellipse fill="none" stroke="black" cx="2448.58" cy="-1047.89" rx="57.6901" ry="18"/>
<text text-anchor="middle" x="2448.58" y="-1044.19" font-family="Times,serif" font-size="14.00">10.247.84.18</text>
</g>
<!-- 87.237.20.224 -->
<g id="node2" class="node"><title>87.237.20.224</title>
<ellipse fill="none" stroke="black" cx="2640.17" cy="-1047.89" rx="61.99" ry="18"/>
<text text-anchor="middle" x="2640.17" y="-1044.19" font-family="Times,serif" font-size="14.00">87.237.20.224</text>
</g>
<!-- 10.247.84.18&#45;&#45;87.237.20.224 -->
<g id="edge1" class="edge"><title>10.247.84.18&#45;&#45;87.237.20.224</title>
<path fill="none" stroke="black" d="M2506.59,-1047.89C2529.27,-1047.89 2555.33,-1047.89 2578.37,-1047.89"/>
</g>
<!-- 87.237.20.73 -->
<g id="node28" class="node"><title>87.237.20.73</title>
<ellipse fill="none" stroke="black" cx="4665.64" cy="-1047.89" rx="57.6901" ry="18"/>
<text text-anchor="middle" x="4665.64" y="-1044.19" font-family="Times,serif" font-size="14.00">87.237.20.73</text>
</g>
<!-- 87.237.20.224&#45;&#45;87.237.20.73 -->
<g id="edge25" class="edge"><title>87.237.20.224&#45;&#45;87.237.20.73</title>
<path fill="none" stroke="black" d="M2702.17,-1047.89C3003.71,-1047.89 4314.31,-1047.89 4607.37,-1047.89"/>
</g>
<!-- 10.247.84.25 -->
<g id="node3" class="node"><title>10.247.84.25</title>
<ellipse fill="none" stroke="black" cx="333.313" cy="-1209.56" rx="57.6901" ry="18"/>
<text text-anchor="middle" x="333.313" y="-1205.86" font-family="Times,serif" font-size="14.00">10.247.84.25</text>
</g>
<!-- 10.247.84.6 -->
<g id="node4" class="node"><title>10.247.84.6</title>
<ellipse fill="none" stroke="black" cx="426.652" cy="-1047.89" rx="53.0913" ry="18"/>
<text text-anchor="middle" x="426.652" y="-1044.19" font-family="Times,serif" font-size="14.00">10.247.84.6</text>
</g>
<!-- 10.247.84.25&#45;&#45;10.247.84.6 -->
<g id="edge2" class="edge"><title>10.247.84.25&#45;&#45;10.247.84.6</title>
<path fill="none" stroke="black" d="M343.658,-1191.64C361.6,-1160.57 398.286,-1097.03 416.26,-1065.89"/>
</g>
<!-- 10.247.84.9 -->
<g id="node6" class="node"><title>10.247.84.9</title>
<ellipse fill="none" stroke="black" cx="551.947" cy="-1047.89" rx="53.0913" ry="18"/>
<text text-anchor="middle" x="551.947" y="-1044.19" font-family="Times,serif" font-size="14.00">10.247.84.9</text>
</g>
<!-- 10.247.84.6&#45;&#45;10.247.84.9 -->
<g id="edge4" class="edge"><title>10.247.84.6&#45;&#45;10.247.84.9</title>
<path fill="none" stroke="black" d="M480.152,-1047.89C486.271,-1047.89 492.509,-1047.89 498.626,-1047.89"/>
</g>
<!-- 10.247.84.27 -->
<g id="node5" class="node"><title>10.247.84.27</title>
<ellipse fill="none" stroke="black" cx="333.313" cy="-886.226" rx="57.6901" ry="18"/>
<text text-anchor="middle" x="333.313" y="-882.526" font-family="Times,serif" font-size="14.00">10.247.84.27</text>
</g>
<!-- 10.247.84.27&#45;&#45;10.247.84.6 -->
<g id="edge3" class="edge"><title>10.247.84.27&#45;&#45;10.247.84.6</title>
<path fill="none" stroke="black" d="M343.658,-904.145C361.6,-935.221 398.286,-998.763 416.26,-1029.89"/>
</g>
<!-- 10.247.84.9&#45;&#45;10.247.84.18 -->
<g id="edge5" class="edge"><title>10.247.84.9&#45;&#45;10.247.84.18</title>
<path fill="none" stroke="black" d="M605.403,-1047.89C877.673,-1047.89 2108.36,-1047.89 2390.72,-1047.89"/>
</g>
<!-- 10.248.28.145 -->
<g id="node7" class="node"><title>10.248.28.145</title>
<ellipse fill="none" stroke="black" cx="146.634" cy="-1209.56" rx="61.99" ry="18"/>
<text text-anchor="middle" x="146.634" y="-1205.86" font-family="Times,serif" font-size="14.00">10.248.28.145</text>
</g>
<!-- 10.248.28.145&#45;&#45;10.247.84.25 -->
<g id="edge6" class="edge"><title>10.248.28.145&#45;&#45;10.247.84.25</title>
<path fill="none" stroke="black" d="M208.536,-1209.56C230.081,-1209.56 254.157,-1209.56 275.369,-1209.56"/>
</g>
<!-- 10.248.28.153 -->
<g id="node8" class="node"><title>10.248.28.153</title>
<ellipse fill="none" stroke="black" cx="146.634" cy="-886.226" rx="61.99" ry="18"/>
<text text-anchor="middle" x="146.634" y="-882.526" font-family="Times,serif" font-size="14.00">10.248.28.153</text>
</g>
<!-- 10.248.28.153&#45;&#45;10.247.84.27 -->
<g id="edge7" class="edge"><title>10.248.28.153&#45;&#45;10.247.84.27</title>
<path fill="none" stroke="black" d="M208.536,-886.226C230.081,-886.226 254.157,-886.226 275.369,-886.226"/>
</g>
<!-- 108.170.232.99 -->
<g id="node9" class="node"><title>108.170.232.99</title>
<ellipse fill="none" stroke="black" cx="5841.94" cy="-1248.45" rx="66.0889" ry="18"/>
<text text-anchor="middle" x="5841.94" y="-1244.75" font-family="Times,serif" font-size="14.00">108.170.232.99</text>
</g>
<!-- 216.58.198.174 -->
<g id="node10" class="node"><title>216.58.198.174</title>
<ellipse fill="none" stroke="black" cx="6043.62" cy="-1282.84" rx="66.0889" ry="18"/>
<text text-anchor="middle" x="6043.62" y="-1279.14" font-family="Times,serif" font-size="14.00">216.58.198.174</text>
</g>
<!-- 108.170.232.99&#45;&#45;216.58.198.174 -->
<g id="edge8" class="edge"><title>108.170.232.99&#45;&#45;216.58.198.174</title>
<path fill="none" stroke="black" d="M5898.12,-1258.03C5925.97,-1262.78 5959.53,-1268.5 5987.39,-1273.25"/>
</g>
<!-- 192.168.1.1 -->
<g id="node11" class="node"><title>192.168.1.1</title>
<ellipse fill="none" stroke="black" cx="53.2953" cy="-1047.89" rx="53.0913" ry="18"/>
<text text-anchor="middle" x="53.2953" y="-1044.19" font-family="Times,serif" font-size="14.00">192.168.1.1</text>
</g>
<!-- 192.168.1.1&#45;&#45;10.248.28.145 -->
<g id="edge9" class="edge"><title>192.168.1.1&#45;&#45;10.248.28.145</title>
<path fill="none" stroke="black" d="M63.6408,-1065.81C81.5825,-1096.89 118.269,-1160.43 136.243,-1191.56"/>
</g>
<!-- 192.168.1.1&#45;&#45;10.248.28.153 -->
<g id="edge10" class="edge"><title>192.168.1.1&#45;&#45;10.248.28.153</title>
<path fill="none" stroke="black" d="M63.6408,-1029.98C81.5825,-998.899 118.269,-935.357 136.243,-904.225"/>
</g>
<!-- 195.66.225.142 -->
<g id="node12" class="node"><title>195.66.225.142</title>
<ellipse fill="none" stroke="black" cx="4094.87" cy="-335.252" rx="66.0889" ry="18"/>
<text text-anchor="middle" x="4094.87" y="-331.552" font-family="Times,serif" font-size="14.00">195.66.225.142</text>
</g>
<!-- 104.244.42.65 -->
<g id="node13" class="node"><title>104.244.42.65</title>
<ellipse fill="none" stroke="black" cx="3969.81" cy="-179.119" rx="61.99" ry="18"/>
<text text-anchor="middle" x="3969.81" y="-175.419" font-family="Times,serif" font-size="14.00">104.244.42.65</text>
</g>
<!-- 195.66.225.142&#45;&#45;104.244.42.65 -->
<g id="edge11" class="edge"><title>195.66.225.142&#45;&#45;104.244.42.65</title>
<path fill="none" stroke="black" d="M4080.76,-317.645C4056.75,-287.659 4008.17,-227.007 3984.06,-196.901"/>
</g>
<!-- 195.66.225.234 -->
<g id="node14" class="node"><title>195.66.225.234</title>
<ellipse fill="none" stroke="black" cx="5018.63" cy="-186.852" rx="66.0889" ry="18"/>
<text text-anchor="middle" x="5018.63" y="-183.152" font-family="Times,serif" font-size="14.00">195.66.225.234</text>
</g>
<!-- 2.120.9.3 -->
<g id="node15" class="node"><title>2.120.9.3</title>
<ellipse fill="none" stroke="black" cx="5087.85" cy="-18" rx="44.393" ry="18"/>
<text text-anchor="middle" x="5087.85" y="-14.3" font-family="Times,serif" font-size="14.00">2.120.9.3</text>
</g>
<!-- 195.66.225.234&#45;&#45;2.120.9.3 -->
<g id="edge12" class="edge"><title>195.66.225.234&#45;&#45;2.120.9.3</title>
<path fill="none" stroke="black" d="M5026.04,-168.782C5039.36,-136.283 5067.21,-68.3447 5080.5,-35.9402"/>
</g>
<!-- 62.154.5.34 -->
<g id="node16" class="node"><title>62.154.5.34</title>
<ellipse fill="none" stroke="black" cx="4421.64" cy="-2025.82" rx="53.0913" ry="18"/>
<text text-anchor="middle" x="4421.64" y="-2022.12" font-family="Times,serif" font-size="14.00">62.154.5.34</text>
</g>
<!-- 4.68.111.145 -->
<g id="node17" class="node"><title>4.68.111.145</title>
<ellipse fill="none" stroke="black" cx="4586.27" cy="-2106.03" rx="57.6901" ry="18"/>
<text text-anchor="middle" x="4586.27" y="-2102.33" font-family="Times,serif" font-size="14.00">4.68.111.145</text>
</g>
<!-- 62.154.5.34&#45;&#45;4.68.111.145 -->
<g id="edge13" class="edge"><title>62.154.5.34&#45;&#45;4.68.111.145</title>
<path fill="none" stroke="black" d="M4452.22,-2040.72C4481.51,-2054.99 4525.5,-2076.42 4555.02,-2090.8"/>
</g>
<!-- 62.157.248.233 -->
<g id="node18" class="node"><title>62.157.248.233</title>
<ellipse fill="none" stroke="black" cx="3937.2" cy="-1822.06" rx="66.0889" ry="18"/>
<text text-anchor="middle" x="3937.2" y="-1818.36" font-family="Times,serif" font-size="14.00">62.157.248.233</text>
</g>
<!-- 80.157.131.9 -->
<g id="node19" class="node"><title>80.157.131.9</title>
<ellipse fill="none" stroke="black" cx="4069.26" cy="-1927.83" rx="57.6901" ry="18"/>
<text text-anchor="middle" x="4069.26" y="-1924.13" font-family="Times,serif" font-size="14.00">80.157.131.9</text>
</g>
<!-- 62.157.248.233&#45;&#45;80.157.131.9 -->
<g id="edge14" class="edge"><title>62.157.248.233&#45;&#45;80.157.131.9</title>
<path fill="none" stroke="black" d="M3958.71,-1839.29C3983.42,-1859.08 4023.68,-1891.33 4048.19,-1910.96"/>
</g>
<!-- 80.157.131.9&#45;&#45;62.154.5.34 -->
<g id="edge22" class="edge"><title>80.157.131.9&#45;&#45;62.154.5.34</title>
<path fill="none" stroke="black" d="M4112.47,-1939.85C4180.83,-1958.86 4313.06,-1995.63 4380.27,-2014.31"/>
</g>
<!-- 80.157.131.33 -->
<g id="node26" class="node"><title>80.157.131.33</title>
<ellipse fill="none" stroke="black" cx="4039.14" cy="-2068.19" rx="61.99" ry="18"/>
<text text-anchor="middle" x="4039.14" y="-2064.49" font-family="Times,serif" font-size="14.00">80.157.131.33</text>
</g>
<!-- 80.157.131.9&#45;&#45;80.157.131.33 -->
<g id="edge23" class="edge"><title>80.157.131.9&#45;&#45;80.157.131.33</title>
<path fill="none" stroke="black" d="M4065.38,-1945.9C4059.6,-1972.85 4048.78,-2023.29 4043.01,-2050.2"/>
</g>
<!-- 72.14.223.2 -->
<g id="node20" class="node"><title>72.14.223.2</title>
<ellipse fill="none" stroke="black" cx="5267.66" cy="-1150.54" rx="53.0913" ry="18"/>
<text text-anchor="middle" x="5267.66" y="-1146.84" font-family="Times,serif" font-size="14.00">72.14.223.2</text>
</g>
<!-- 72.14.232.219 -->
<g id="node21" class="node"><title>72.14.232.219</title>
<ellipse fill="none" stroke="black" cx="5452.04" cy="-1181.98" rx="61.99" ry="18"/>
<text text-anchor="middle" x="5452.04" y="-1178.28" font-family="Times,serif" font-size="14.00">72.14.232.219</text>
</g>
<!-- 72.14.223.2&#45;&#45;72.14.232.219 -->
<g id="edge15" class="edge"><title>72.14.223.2&#45;&#45;72.14.232.219</title>
<path fill="none" stroke="black" d="M5315.62,-1158.72C5341.02,-1163.05 5372.28,-1168.38 5398.47,-1172.84"/>
</g>
<!-- 72.14.232.193 -->
<g id="node22" class="node"><title>72.14.232.193</title>
<ellipse fill="none" stroke="black" cx="5644.75" cy="-1214.83" rx="61.99" ry="18"/>
<text text-anchor="middle" x="5644.75" y="-1211.13" font-family="Times,serif" font-size="14.00">72.14.232.193</text>
</g>
<!-- 72.14.232.219&#45;&#45;72.14.232.193 -->
<g id="edge17" class="edge"><title>72.14.232.219&#45;&#45;72.14.232.193</title>
<path fill="none" stroke="black" d="M5505.46,-1191.08C5532.2,-1195.64 5564.47,-1201.15 5591.22,-1205.71"/>
</g>
<!-- 72.14.232.193&#45;&#45;108.170.232.99 -->
<g id="edge16" class="edge"><title>72.14.232.193&#45;&#45;108.170.232.99</title>
<path fill="none" stroke="black" d="M5698.11,-1223.93C5725.26,-1228.56 5758.24,-1234.18 5785.78,-1238.88"/>
</g>
<!-- 80.150.170.153 -->
<g id="node23" class="node"><title>80.150.170.153</title>
<ellipse fill="none" stroke="black" cx="4094.83" cy="-1760.58" rx="66.0889" ry="18"/>
<text text-anchor="middle" x="4094.83" y="-1756.88" font-family="Times,serif" font-size="14.00">80.150.170.153</text>
</g>
<!-- 80.150.170.153&#45;&#45;62.157.248.233 -->
<g id="edge18" class="edge"><title>80.150.170.153&#45;&#45;62.157.248.233</title>
<path fill="none" stroke="black" d="M4056.67,-1775.47C4031.98,-1785.1 3999.96,-1797.59 3975.28,-1807.21"/>
</g>
<!-- 80.150.170.153&#45;&#45;80.157.131.9 -->
<g id="edge19" class="edge"><title>80.150.170.153&#45;&#45;80.157.131.9</title>
<path fill="none" stroke="black" d="M4092.04,-1778.8C4087.12,-1810.97 4076.96,-1877.48 4072.04,-1909.64"/>
</g>
<!-- 80.150.171.218 -->
<g id="node24" class="node"><title>80.150.171.218</title>
<ellipse fill="none" stroke="black" cx="4043.8" cy="-2268.18" rx="66.0889" ry="18"/>
<text text-anchor="middle" x="4043.8" y="-2264.48" font-family="Times,serif" font-size="14.00">80.150.171.218</text>
</g>
<!-- 80.231.62.58 -->
<g id="node25" class="node"><title>80.231.62.58</title>
<ellipse fill="none" stroke="black" cx="4048.36" cy="-2464.26" rx="57.6901" ry="18"/>
<text text-anchor="middle" x="4048.36" y="-2460.56" font-family="Times,serif" font-size="14.00">80.231.62.58</text>
</g>
<!-- 80.150.171.218&#45;&#45;80.231.62.58 -->
<g id="edge20" class="edge"><title>80.150.171.218&#45;&#45;80.231.62.58</title>
<path fill="none" stroke="black" d="M4044.22,-2286.27C4045.09,-2323.63 4047.07,-2408.89 4047.94,-2446.21"/>
</g>
<!-- 66.198.70.173 -->
<g id="node27" class="node"><title>66.198.70.173</title>
<ellipse fill="none" stroke="black" cx="4052.81" cy="-2655.8" rx="61.99" ry="18"/>
<text text-anchor="middle" x="4052.81" y="-2652.1" font-family="Times,serif" font-size="14.00">66.198.70.173</text>
</g>
<!-- 80.231.62.58&#45;&#45;66.198.70.173 -->
<g id="edge24" class="edge"><title>80.231.62.58&#45;&#45;66.198.70.173</title>
<path fill="none" stroke="black" d="M4048.78,-2482.28C4049.63,-2518.79 4051.54,-2601.11 4052.39,-2637.69"/>
</g>
<!-- 80.157.131.33&#45;&#45;80.150.171.218 -->
<g id="edge21" class="edge"><title>80.157.131.33&#45;&#45;80.150.171.218</title>
<path fill="none" stroke="black" d="M4039.57,-2086.29C4040.45,-2124.27 4042.49,-2211.91 4043.37,-2249.97"/>
</g>
<!-- 87.237.20.73&#45;&#45;195.66.225.142 -->
<g id="edge26" class="edge"><title>87.237.20.73&#45;&#45;195.66.225.142</title>
<path fill="none" stroke="black" d="M4651.53,-1030.28C4572.74,-931.897 4187.84,-451.329 4108.99,-352.89"/>
</g>
<!-- 87.237.20.73&#45;&#45;195.66.225.234 -->
<g id="edge27" class="edge"><title>87.237.20.73&#45;&#45;195.66.225.234</title>
<path fill="none" stroke="black" d="M4673.01,-1029.91C4718.9,-917.974 4964.95,-317.801 5011.15,-205.1"/>
</g>
<!-- 87.237.20.73&#45;&#45;72.14.223.2 -->
<g id="edge28" class="edge"><title>87.237.20.73&#45;&#45;72.14.223.2</title>
<path fill="none" stroke="black" d="M4716.45,-1056.56C4830.97,-1076.08 5107.96,-1123.31 5219.72,-1142.36"/>
</g>
<!-- 87.237.20.73&#45;&#45;80.150.170.153 -->
<g id="edge29" class="edge"><title>87.237.20.73&#45;&#45;80.150.170.153</title>
<path fill="none" stroke="black" d="M4651.53,-1065.51C4572.73,-1163.9 4187.8,-1644.5 4108.96,-1742.94"/>
</g>
</g>
</svg>
